<mxfile host="Electron" agent="Mozilla/5.0 (Windows NT 10.0; Win64; x64) AppleWebKit/537.36 (KHTML, like Gecko) draw.io/26.0.16 Chrome/132.0.6834.196 Electron/34.2.0 Safari/537.36" version="26.0.16">
  <diagram id="C5RBs43oDa-KdzZeNtuy" name="Page-1">
    <mxGraphModel dx="2251" dy="1670" grid="1" gridSize="10" guides="1" tooltips="1" connect="1" arrows="1" fold="1" page="1" pageScale="1" pageWidth="827" pageHeight="1169" math="0" shadow="0">
      <root>
        <mxCell id="WIyWlLk6GJQsqaUBKTNV-0" />
        <mxCell id="WIyWlLk6GJQsqaUBKTNV-1" parent="WIyWlLk6GJQsqaUBKTNV-0" />
        <mxCell id="zkfFHV4jXpPFQw0GAbJ--6" value="GameManagement" style="swimlane;fontStyle=0;align=center;verticalAlign=top;childLayout=stackLayout;horizontal=1;startSize=26;horizontalStack=0;resizeParent=1;resizeLast=0;collapsible=1;marginBottom=0;rounded=0;shadow=0;strokeWidth=1;" parent="WIyWlLk6GJQsqaUBKTNV-1" vertex="1">
          <mxGeometry x="76" y="374" width="236" height="730" as="geometry">
            <mxRectangle x="130" y="380" width="160" height="26" as="alternateBounds" />
          </mxGeometry>
        </mxCell>
        <mxCell id="zkfFHV4jXpPFQw0GAbJ--7" value="- player : GameCharacter" style="text;align=left;verticalAlign=top;spacingLeft=4;spacingRight=4;overflow=hidden;rotatable=0;points=[[0,0.5],[1,0.5]];portConstraint=eastwest;" parent="zkfFHV4jXpPFQw0GAbJ--6" vertex="1">
          <mxGeometry y="26" width="236" height="26" as="geometry" />
        </mxCell>
        <mxCell id="zkfFHV4jXpPFQw0GAbJ--8" value="- enemy : GameCharacter" style="text;align=left;verticalAlign=top;spacingLeft=4;spacingRight=4;overflow=hidden;rotatable=0;points=[[0,0.5],[1,0.5]];portConstraint=eastwest;rounded=0;shadow=0;html=0;" parent="zkfFHV4jXpPFQw0GAbJ--6" vertex="1">
          <mxGeometry y="52" width="236" height="26" as="geometry" />
        </mxCell>
        <mxCell id="sWKYmD87pAxfQqB18a7g-89" value="- deckPlayer : Deck" style="text;align=left;verticalAlign=top;spacingLeft=4;spacingRight=4;overflow=hidden;rotatable=0;points=[[0,0.5],[1,0.5]];portConstraint=eastwest;rounded=0;shadow=0;html=0;" vertex="1" parent="zkfFHV4jXpPFQw0GAbJ--6">
          <mxGeometry y="78" width="236" height="26" as="geometry" />
        </mxCell>
        <mxCell id="sWKYmD87pAxfQqB18a7g-90" value="- deckEnemy : Deck" style="text;align=left;verticalAlign=top;spacingLeft=4;spacingRight=4;overflow=hidden;rotatable=0;points=[[0,0.5],[1,0.5]];portConstraint=eastwest;rounded=0;shadow=0;html=0;" vertex="1" parent="zkfFHV4jXpPFQw0GAbJ--6">
          <mxGeometry y="104" width="236" height="26" as="geometry" />
        </mxCell>
        <mxCell id="sWKYmD87pAxfQqB18a7g-91" value="- cardPlayer : Card" style="text;align=left;verticalAlign=top;spacingLeft=4;spacingRight=4;overflow=hidden;rotatable=0;points=[[0,0.5],[1,0.5]];portConstraint=eastwest;rounded=0;shadow=0;html=0;" vertex="1" parent="zkfFHV4jXpPFQw0GAbJ--6">
          <mxGeometry y="130" width="236" height="26" as="geometry" />
        </mxCell>
        <mxCell id="sWKYmD87pAxfQqB18a7g-92" value="- cardEnemy : Card" style="text;align=left;verticalAlign=top;spacingLeft=4;spacingRight=4;overflow=hidden;rotatable=0;points=[[0,0.5],[1,0.5]];portConstraint=eastwest;rounded=0;shadow=0;html=0;" vertex="1" parent="zkfFHV4jXpPFQw0GAbJ--6">
          <mxGeometry y="156" width="236" height="26" as="geometry" />
        </mxCell>
        <mxCell id="sWKYmD87pAxfQqB18a7g-93" value="- isRunning : boolean" style="text;align=left;verticalAlign=top;spacingLeft=4;spacingRight=4;overflow=hidden;rotatable=0;points=[[0,0.5],[1,0.5]];portConstraint=eastwest;rounded=0;shadow=0;html=0;" vertex="1" parent="zkfFHV4jXpPFQw0GAbJ--6">
          <mxGeometry y="182" width="236" height="26" as="geometry" />
        </mxCell>
        <mxCell id="sWKYmD87pAxfQqB18a7g-94" value="- msg : String" style="text;align=left;verticalAlign=top;spacingLeft=4;spacingRight=4;overflow=hidden;rotatable=0;points=[[0,0.5],[1,0.5]];portConstraint=eastwest;rounded=0;shadow=0;html=0;" vertex="1" parent="zkfFHV4jXpPFQw0GAbJ--6">
          <mxGeometry y="208" width="236" height="26" as="geometry" />
        </mxCell>
        <mxCell id="sWKYmD87pAxfQqB18a7g-95" value="- audioMusic : audio" style="text;align=left;verticalAlign=top;spacingLeft=4;spacingRight=4;overflow=hidden;rotatable=0;points=[[0,0.5],[1,0.5]];portConstraint=eastwest;rounded=0;shadow=0;html=0;" vertex="1" parent="zkfFHV4jXpPFQw0GAbJ--6">
          <mxGeometry y="234" width="236" height="26" as="geometry" />
        </mxCell>
        <mxCell id="sWKYmD87pAxfQqB18a7g-96" value="- audioDamage : audio" style="text;align=left;verticalAlign=top;spacingLeft=4;spacingRight=4;overflow=hidden;rotatable=0;points=[[0,0.5],[1,0.5]];portConstraint=eastwest;rounded=0;shadow=0;html=0;" vertex="1" parent="zkfFHV4jXpPFQw0GAbJ--6">
          <mxGeometry y="260" width="236" height="26" as="geometry" />
        </mxCell>
        <mxCell id="sWKYmD87pAxfQqB18a7g-97" value="- audioWin : audio" style="text;align=left;verticalAlign=top;spacingLeft=4;spacingRight=4;overflow=hidden;rotatable=0;points=[[0,0.5],[1,0.5]];portConstraint=eastwest;rounded=0;shadow=0;html=0;" vertex="1" parent="zkfFHV4jXpPFQw0GAbJ--6">
          <mxGeometry y="286" width="236" height="26" as="geometry" />
        </mxCell>
        <mxCell id="sWKYmD87pAxfQqB18a7g-98" value="+ who : WhoGetDamage" style="text;align=left;verticalAlign=top;spacingLeft=4;spacingRight=4;overflow=hidden;rotatable=0;points=[[0,0.5],[1,0.5]];portConstraint=eastwest;rounded=0;shadow=0;html=0;" vertex="1" parent="zkfFHV4jXpPFQw0GAbJ--6">
          <mxGeometry y="312" width="236" height="26" as="geometry" />
        </mxCell>
        <mxCell id="sWKYmD87pAxfQqB18a7g-99" value="+ winnerAttackType : AttackType" style="text;align=left;verticalAlign=top;spacingLeft=4;spacingRight=4;overflow=hidden;rotatable=0;points=[[0,0.5],[1,0.5]];portConstraint=eastwest;rounded=0;shadow=0;html=0;" vertex="1" parent="zkfFHV4jXpPFQw0GAbJ--6">
          <mxGeometry y="338" width="236" height="26" as="geometry" />
        </mxCell>
        <mxCell id="sWKYmD87pAxfQqB18a7g-100" value="- RANDOM : Random" style="text;align=left;verticalAlign=top;spacingLeft=4;spacingRight=4;overflow=hidden;rotatable=0;points=[[0,0.5],[1,0.5]];portConstraint=eastwest;rounded=0;shadow=0;html=0;" vertex="1" parent="zkfFHV4jXpPFQw0GAbJ--6">
          <mxGeometry y="364" width="236" height="26" as="geometry" />
        </mxCell>
        <mxCell id="zkfFHV4jXpPFQw0GAbJ--9" value="" style="line;html=1;strokeWidth=1;align=left;verticalAlign=middle;spacingTop=-1;spacingLeft=3;spacingRight=3;rotatable=0;labelPosition=right;points=[];portConstraint=eastwest;" parent="zkfFHV4jXpPFQw0GAbJ--6" vertex="1">
          <mxGeometry y="390" width="236" height="20" as="geometry" />
        </mxCell>
        <mxCell id="zkfFHV4jXpPFQw0GAbJ--11" value="+ setNewGame() : void" style="text;align=left;verticalAlign=top;spacingLeft=4;spacingRight=4;overflow=hidden;rotatable=0;points=[[0,0.5],[1,0.5]];portConstraint=eastwest;" parent="zkfFHV4jXpPFQw0GAbJ--6" vertex="1">
          <mxGeometry y="410" width="236" height="26" as="geometry" />
        </mxCell>
        <mxCell id="sWKYmD87pAxfQqB18a7g-102" value="+ gameStart() : void" style="text;align=left;verticalAlign=top;spacingLeft=4;spacingRight=4;overflow=hidden;rotatable=0;points=[[0,0.5],[1,0.5]];portConstraint=eastwest;" vertex="1" parent="zkfFHV4jXpPFQw0GAbJ--6">
          <mxGeometry y="436" width="236" height="26" as="geometry" />
        </mxCell>
        <mxCell id="sWKYmD87pAxfQqB18a7g-103" value="+ gameStop() : void" style="text;align=left;verticalAlign=top;spacingLeft=4;spacingRight=4;overflow=hidden;rotatable=0;points=[[0,0.5],[1,0.5]];portConstraint=eastwest;" vertex="1" parent="zkfFHV4jXpPFQw0GAbJ--6">
          <mxGeometry y="462" width="236" height="26" as="geometry" />
        </mxCell>
        <mxCell id="sWKYmD87pAxfQqB18a7g-104" value="+ exit() : void" style="text;align=left;verticalAlign=top;spacingLeft=4;spacingRight=4;overflow=hidden;rotatable=0;points=[[0,0.5],[1,0.5]];portConstraint=eastwest;" vertex="1" parent="zkfFHV4jXpPFQw0GAbJ--6">
          <mxGeometry y="488" width="236" height="26" as="geometry" />
        </mxCell>
        <mxCell id="sWKYmD87pAxfQqB18a7g-105" value="+ playerDraw(Card) : void" style="text;align=left;verticalAlign=top;spacingLeft=4;spacingRight=4;overflow=hidden;rotatable=0;points=[[0,0.5],[1,0.5]];portConstraint=eastwest;" vertex="1" parent="zkfFHV4jXpPFQw0GAbJ--6">
          <mxGeometry y="514" width="236" height="26" as="geometry" />
        </mxCell>
        <mxCell id="sWKYmD87pAxfQqB18a7g-106" value="+ EnemyDraw(Card) : void" style="text;align=left;verticalAlign=top;spacingLeft=4;spacingRight=4;overflow=hidden;rotatable=0;points=[[0,0.5],[1,0.5]];portConstraint=eastwest;" vertex="1" parent="zkfFHV4jXpPFQw0GAbJ--6">
          <mxGeometry y="540" width="236" height="26" as="geometry" />
        </mxCell>
        <mxCell id="sWKYmD87pAxfQqB18a7g-110" value="+ resetDeck() : void" style="text;align=left;verticalAlign=top;spacingLeft=4;spacingRight=4;overflow=hidden;rotatable=0;points=[[0,0.5],[1,0.5]];portConstraint=eastwest;" vertex="1" parent="zkfFHV4jXpPFQw0GAbJ--6">
          <mxGeometry y="566" width="236" height="26" as="geometry" />
        </mxCell>
        <mxCell id="sWKYmD87pAxfQqB18a7g-111" value="+ getIsRunning() : boolean" style="text;align=left;verticalAlign=top;spacingLeft=4;spacingRight=4;overflow=hidden;rotatable=0;points=[[0,0.5],[1,0.5]];portConstraint=eastwest;" vertex="1" parent="zkfFHV4jXpPFQw0GAbJ--6">
          <mxGeometry y="592" width="236" height="26" as="geometry" />
        </mxCell>
        <mxCell id="sWKYmD87pAxfQqB18a7g-112" value="+ getMessage() : String" style="text;align=left;verticalAlign=top;spacingLeft=4;spacingRight=4;overflow=hidden;rotatable=0;points=[[0,0.5],[1,0.5]];portConstraint=eastwest;" vertex="1" parent="zkfFHV4jXpPFQw0GAbJ--6">
          <mxGeometry y="618" width="236" height="26" as="geometry" />
        </mxCell>
        <mxCell id="sWKYmD87pAxfQqB18a7g-113" value="- getPlayerImage() : void" style="text;align=left;verticalAlign=top;spacingLeft=4;spacingRight=4;overflow=hidden;rotatable=0;points=[[0,0.5],[1,0.5]];portConstraint=eastwest;" vertex="1" parent="zkfFHV4jXpPFQw0GAbJ--6">
          <mxGeometry y="644" width="236" height="26" as="geometry" />
        </mxCell>
        <mxCell id="sWKYmD87pAxfQqB18a7g-114" value="- getEnemyImage() : void" style="text;align=left;verticalAlign=top;spacingLeft=4;spacingRight=4;overflow=hidden;rotatable=0;points=[[0,0.5],[1,0.5]];portConstraint=eastwest;" vertex="1" parent="zkfFHV4jXpPFQw0GAbJ--6">
          <mxGeometry y="670" width="236" height="26" as="geometry" />
        </mxCell>
        <mxCell id="sWKYmD87pAxfQqB18a7g-115" value="- getSoundAttack() : AttackType" style="text;align=left;verticalAlign=top;spacingLeft=4;spacingRight=4;overflow=hidden;rotatable=0;points=[[0,0.5],[1,0.5]];portConstraint=eastwest;" vertex="1" parent="zkfFHV4jXpPFQw0GAbJ--6">
          <mxGeometry y="696" width="236" height="26" as="geometry" />
        </mxCell>
        <mxCell id="sWKYmD87pAxfQqB18a7g-1" value="TableController" style="swimlane;fontStyle=0;align=center;verticalAlign=top;childLayout=stackLayout;horizontal=1;startSize=26;horizontalStack=0;resizeParent=1;resizeLast=0;collapsible=1;marginBottom=0;rounded=0;shadow=0;strokeWidth=1;" vertex="1" parent="WIyWlLk6GJQsqaUBKTNV-1">
          <mxGeometry x="640" y="270" width="250" height="1470" as="geometry">
            <mxRectangle x="130" y="380" width="160" height="26" as="alternateBounds" />
          </mxGeometry>
        </mxCell>
        <mxCell id="sWKYmD87pAxfQqB18a7g-2" value="- imgCard01 : ImageView" style="text;align=left;verticalAlign=top;spacingLeft=4;spacingRight=4;overflow=hidden;rotatable=0;points=[[0,0.5],[1,0.5]];portConstraint=eastwest;" vertex="1" parent="sWKYmD87pAxfQqB18a7g-1">
          <mxGeometry y="26" width="250" height="26" as="geometry" />
        </mxCell>
        <mxCell id="sWKYmD87pAxfQqB18a7g-203" value="- imgCard02 : ImageView" style="text;align=left;verticalAlign=top;spacingLeft=4;spacingRight=4;overflow=hidden;rotatable=0;points=[[0,0.5],[1,0.5]];portConstraint=eastwest;" vertex="1" parent="sWKYmD87pAxfQqB18a7g-1">
          <mxGeometry y="52" width="250" height="26" as="geometry" />
        </mxCell>
        <mxCell id="sWKYmD87pAxfQqB18a7g-204" value="- imgCard03 : ImageView" style="text;align=left;verticalAlign=top;spacingLeft=4;spacingRight=4;overflow=hidden;rotatable=0;points=[[0,0.5],[1,0.5]];portConstraint=eastwest;" vertex="1" parent="sWKYmD87pAxfQqB18a7g-1">
          <mxGeometry y="78" width="250" height="26" as="geometry" />
        </mxCell>
        <mxCell id="sWKYmD87pAxfQqB18a7g-207" value="- imgCard04 : ImageView" style="text;align=left;verticalAlign=top;spacingLeft=4;spacingRight=4;overflow=hidden;rotatable=0;points=[[0,0.5],[1,0.5]];portConstraint=eastwest;" vertex="1" parent="sWKYmD87pAxfQqB18a7g-1">
          <mxGeometry y="104" width="250" height="26" as="geometry" />
        </mxCell>
        <mxCell id="sWKYmD87pAxfQqB18a7g-209" value="- imgCard05 : ImageView" style="text;align=left;verticalAlign=top;spacingLeft=4;spacingRight=4;overflow=hidden;rotatable=0;points=[[0,0.5],[1,0.5]];portConstraint=eastwest;" vertex="1" parent="sWKYmD87pAxfQqB18a7g-1">
          <mxGeometry y="130" width="250" height="26" as="geometry" />
        </mxCell>
        <mxCell id="sWKYmD87pAxfQqB18a7g-210" value="- imgCard06 : ImageView" style="text;align=left;verticalAlign=top;spacingLeft=4;spacingRight=4;overflow=hidden;rotatable=0;points=[[0,0.5],[1,0.5]];portConstraint=eastwest;" vertex="1" parent="sWKYmD87pAxfQqB18a7g-1">
          <mxGeometry y="156" width="250" height="26" as="geometry" />
        </mxCell>
        <mxCell id="sWKYmD87pAxfQqB18a7g-211" value="- imgCard07 : ImageView" style="text;align=left;verticalAlign=top;spacingLeft=4;spacingRight=4;overflow=hidden;rotatable=0;points=[[0,0.5],[1,0.5]];portConstraint=eastwest;" vertex="1" parent="sWKYmD87pAxfQqB18a7g-1">
          <mxGeometry y="182" width="250" height="26" as="geometry" />
        </mxCell>
        <mxCell id="sWKYmD87pAxfQqB18a7g-208" value="- imgCard08 : ImageView" style="text;align=left;verticalAlign=top;spacingLeft=4;spacingRight=4;overflow=hidden;rotatable=0;points=[[0,0.5],[1,0.5]];portConstraint=eastwest;" vertex="1" parent="sWKYmD87pAxfQqB18a7g-1">
          <mxGeometry y="208" width="250" height="26" as="geometry" />
        </mxCell>
        <mxCell id="sWKYmD87pAxfQqB18a7g-206" value="- imgCard09 : ImageView" style="text;align=left;verticalAlign=top;spacingLeft=4;spacingRight=4;overflow=hidden;rotatable=0;points=[[0,0.5],[1,0.5]];portConstraint=eastwest;" vertex="1" parent="sWKYmD87pAxfQqB18a7g-1">
          <mxGeometry y="234" width="250" height="26" as="geometry" />
        </mxCell>
        <mxCell id="sWKYmD87pAxfQqB18a7g-205" value="- imgCard10 : ImageView" style="text;align=left;verticalAlign=top;spacingLeft=4;spacingRight=4;overflow=hidden;rotatable=0;points=[[0,0.5],[1,0.5]];portConstraint=eastwest;" vertex="1" parent="sWKYmD87pAxfQqB18a7g-1">
          <mxGeometry y="260" width="250" height="26" as="geometry" />
        </mxCell>
        <mxCell id="sWKYmD87pAxfQqB18a7g-213" value="- imgEnemy : ImageView" style="text;align=left;verticalAlign=top;spacingLeft=4;spacingRight=4;overflow=hidden;rotatable=0;points=[[0,0.5],[1,0.5]];portConstraint=eastwest;" vertex="1" parent="sWKYmD87pAxfQqB18a7g-1">
          <mxGeometry y="286" width="250" height="26" as="geometry" />
        </mxCell>
        <mxCell id="sWKYmD87pAxfQqB18a7g-214" value="- imgPlayer : ImageView" style="text;align=left;verticalAlign=top;spacingLeft=4;spacingRight=4;overflow=hidden;rotatable=0;points=[[0,0.5],[1,0.5]];portConstraint=eastwest;" vertex="1" parent="sWKYmD87pAxfQqB18a7g-1">
          <mxGeometry y="312" width="250" height="26" as="geometry" />
        </mxCell>
        <mxCell id="sWKYmD87pAxfQqB18a7g-212" value="- txtEnemyHp : Label" style="text;align=left;verticalAlign=top;spacingLeft=4;spacingRight=4;overflow=hidden;rotatable=0;points=[[0,0.5],[1,0.5]];portConstraint=eastwest;" vertex="1" parent="sWKYmD87pAxfQqB18a7g-1">
          <mxGeometry y="338" width="250" height="26" as="geometry" />
        </mxCell>
        <mxCell id="sWKYmD87pAxfQqB18a7g-215" value="- txtEnemyName : Label" style="text;align=left;verticalAlign=top;spacingLeft=4;spacingRight=4;overflow=hidden;rotatable=0;points=[[0,0.5],[1,0.5]];portConstraint=eastwest;" vertex="1" parent="sWKYmD87pAxfQqB18a7g-1">
          <mxGeometry y="364" width="250" height="26" as="geometry" />
        </mxCell>
        <mxCell id="sWKYmD87pAxfQqB18a7g-217" value="- txtPlayerHp : Label" style="text;align=left;verticalAlign=top;spacingLeft=4;spacingRight=4;overflow=hidden;rotatable=0;points=[[0,0.5],[1,0.5]];portConstraint=eastwest;" vertex="1" parent="sWKYmD87pAxfQqB18a7g-1">
          <mxGeometry y="390" width="250" height="26" as="geometry" />
        </mxCell>
        <mxCell id="sWKYmD87pAxfQqB18a7g-218" value="- txtPlayerName : Label" style="text;align=left;verticalAlign=top;spacingLeft=4;spacingRight=4;overflow=hidden;rotatable=0;points=[[0,0.5],[1,0.5]];portConstraint=eastwest;" vertex="1" parent="sWKYmD87pAxfQqB18a7g-1">
          <mxGeometry y="416" width="250" height="26" as="geometry" />
        </mxCell>
        <mxCell id="sWKYmD87pAxfQqB18a7g-216" value="- txtMessage : Label" style="text;align=left;verticalAlign=top;spacingLeft=4;spacingRight=4;overflow=hidden;rotatable=0;points=[[0,0.5],[1,0.5]];portConstraint=eastwest;" vertex="1" parent="sWKYmD87pAxfQqB18a7g-1">
          <mxGeometry y="442" width="250" height="26" as="geometry" />
        </mxCell>
        <mxCell id="sWKYmD87pAxfQqB18a7g-219" value="- pgbEnemyHp : ProgressBar" style="text;align=left;verticalAlign=top;spacingLeft=4;spacingRight=4;overflow=hidden;rotatable=0;points=[[0,0.5],[1,0.5]];portConstraint=eastwest;" vertex="1" parent="sWKYmD87pAxfQqB18a7g-1">
          <mxGeometry y="468" width="250" height="26" as="geometry" />
        </mxCell>
        <mxCell id="sWKYmD87pAxfQqB18a7g-221" value="- pgbPlayerHp : ProgressBar" style="text;align=left;verticalAlign=top;spacingLeft=4;spacingRight=4;overflow=hidden;rotatable=0;points=[[0,0.5],[1,0.5]];portConstraint=eastwest;" vertex="1" parent="sWKYmD87pAxfQqB18a7g-1">
          <mxGeometry y="494" width="250" height="26" as="geometry" />
        </mxCell>
        <mxCell id="sWKYmD87pAxfQqB18a7g-220" value="- btnReDeck : Button" style="text;align=left;verticalAlign=top;spacingLeft=4;spacingRight=4;overflow=hidden;rotatable=0;points=[[0,0.5],[1,0.5]];portConstraint=eastwest;" vertex="1" parent="sWKYmD87pAxfQqB18a7g-1">
          <mxGeometry y="520" width="250" height="26" as="geometry" />
        </mxCell>
        <mxCell id="sWKYmD87pAxfQqB18a7g-222" value="- btnNewGame : Button" style="text;align=left;verticalAlign=top;spacingLeft=4;spacingRight=4;overflow=hidden;rotatable=0;points=[[0,0.5],[1,0.5]];portConstraint=eastwest;" vertex="1" parent="sWKYmD87pAxfQqB18a7g-1">
          <mxGeometry y="546" width="250" height="26" as="geometry" />
        </mxCell>
        <mxCell id="sWKYmD87pAxfQqB18a7g-223" value="- btnExit : Button" style="text;align=left;verticalAlign=top;spacingLeft=4;spacingRight=4;overflow=hidden;rotatable=0;points=[[0,0.5],[1,0.5]];portConstraint=eastwest;" vertex="1" parent="sWKYmD87pAxfQqB18a7g-1">
          <mxGeometry y="572" width="250" height="26" as="geometry" />
        </mxCell>
        <mxCell id="sWKYmD87pAxfQqB18a7g-224" value="- imgPlayerShield : ImageView" style="text;align=left;verticalAlign=top;spacingLeft=4;spacingRight=4;overflow=hidden;rotatable=0;points=[[0,0.5],[1,0.5]];portConstraint=eastwest;" vertex="1" parent="sWKYmD87pAxfQqB18a7g-1">
          <mxGeometry y="598" width="250" height="26" as="geometry" />
        </mxCell>
        <mxCell id="sWKYmD87pAxfQqB18a7g-225" value="- imgEnemyShield : ImageView" style="text;align=left;verticalAlign=top;spacingLeft=4;spacingRight=4;overflow=hidden;rotatable=0;points=[[0,0.5],[1,0.5]];portConstraint=eastwest;" vertex="1" parent="sWKYmD87pAxfQqB18a7g-1">
          <mxGeometry y="624" width="250" height="26" as="geometry" />
        </mxCell>
        <mxCell id="sWKYmD87pAxfQqB18a7g-226" value="- CARDMAP : Map&lt;ImageView, Card&gt;" style="text;align=left;verticalAlign=top;spacingLeft=4;spacingRight=4;overflow=hidden;rotatable=0;points=[[0,0.5],[1,0.5]];portConstraint=eastwest;" vertex="1" parent="sWKYmD87pAxfQqB18a7g-1">
          <mxGeometry y="650" width="250" height="26" as="geometry" />
        </mxCell>
        <mxCell id="sWKYmD87pAxfQqB18a7g-228" value="- BACKIMAGE : Image" style="text;align=left;verticalAlign=top;spacingLeft=4;spacingRight=4;overflow=hidden;rotatable=0;points=[[0,0.5],[1,0.5]];portConstraint=eastwest;fontStyle=4" vertex="1" parent="sWKYmD87pAxfQqB18a7g-1">
          <mxGeometry y="676" width="250" height="26" as="geometry" />
        </mxCell>
        <mxCell id="sWKYmD87pAxfQqB18a7g-229" value="- SHIELDIMAGE : Image" style="text;align=left;verticalAlign=top;spacingLeft=4;spacingRight=4;overflow=hidden;rotatable=0;points=[[0,0.5],[1,0.5]];portConstraint=eastwest;fontStyle=4" vertex="1" parent="sWKYmD87pAxfQqB18a7g-1">
          <mxGeometry y="702" width="250" height="26" as="geometry" />
        </mxCell>
        <mxCell id="sWKYmD87pAxfQqB18a7g-230" value="- game : GameManagement" style="text;align=left;verticalAlign=top;spacingLeft=4;spacingRight=4;overflow=hidden;rotatable=0;points=[[0,0.5],[1,0.5]];portConstraint=eastwest;" vertex="1" parent="sWKYmD87pAxfQqB18a7g-1">
          <mxGeometry y="728" width="250" height="26" as="geometry" />
        </mxCell>
        <mxCell id="sWKYmD87pAxfQqB18a7g-231" value="- EnemyFlipTime : int" style="text;align=left;verticalAlign=top;spacingLeft=4;spacingRight=4;overflow=hidden;rotatable=0;points=[[0,0.5],[1,0.5]];portConstraint=eastwest;" vertex="1" parent="sWKYmD87pAxfQqB18a7g-1">
          <mxGeometry y="754" width="250" height="26" as="geometry" />
        </mxCell>
        <mxCell id="sWKYmD87pAxfQqB18a7g-4" value="" style="line;html=1;strokeWidth=1;align=left;verticalAlign=middle;spacingTop=-1;spacingLeft=3;spacingRight=3;rotatable=0;labelPosition=right;points=[];portConstraint=eastwest;" vertex="1" parent="sWKYmD87pAxfQqB18a7g-1">
          <mxGeometry y="780" width="250" height="8" as="geometry" />
        </mxCell>
        <mxCell id="sWKYmD87pAxfQqB18a7g-232" value="- initialize() : void" style="text;align=left;verticalAlign=top;spacingLeft=4;spacingRight=4;overflow=hidden;rotatable=0;points=[[0,0.5],[1,0.5]];portConstraint=eastwest;" vertex="1" parent="sWKYmD87pAxfQqB18a7g-1">
          <mxGeometry y="788" width="250" height="26" as="geometry" />
        </mxCell>
        <mxCell id="sWKYmD87pAxfQqB18a7g-233" value="+ setAllBackImage() : void" style="text;align=left;verticalAlign=top;spacingLeft=4;spacingRight=4;overflow=hidden;rotatable=0;points=[[0,0.5],[1,0.5]];portConstraint=eastwest;" vertex="1" parent="sWKYmD87pAxfQqB18a7g-1">
          <mxGeometry y="814" width="250" height="26" as="geometry" />
        </mxCell>
        <mxCell id="sWKYmD87pAxfQqB18a7g-234" value="+ setShieldImage() : void" style="text;align=left;verticalAlign=top;spacingLeft=4;spacingRight=4;overflow=hidden;rotatable=0;points=[[0,0.5],[1,0.5]];portConstraint=eastwest;" vertex="1" parent="sWKYmD87pAxfQqB18a7g-1">
          <mxGeometry y="840" width="250" height="26" as="geometry" />
        </mxCell>
        <mxCell id="sWKYmD87pAxfQqB18a7g-235" value="- flipPlayerCard(ImageView cardView) : void" style="text;align=left;verticalAlign=top;spacingLeft=4;spacingRight=4;overflow=hidden;rotatable=0;points=[[0,0.5],[1,0.5]];portConstraint=eastwest;" vertex="1" parent="sWKYmD87pAxfQqB18a7g-1">
          <mxGeometry y="866" width="250" height="26" as="geometry" />
        </mxCell>
        <mxCell id="sWKYmD87pAxfQqB18a7g-237" value="- flipEnemyCard() : void" style="text;align=left;verticalAlign=top;spacingLeft=4;spacingRight=4;overflow=hidden;rotatable=0;points=[[0,0.5],[1,0.5]];portConstraint=eastwest;" vertex="1" parent="sWKYmD87pAxfQqB18a7g-1">
          <mxGeometry y="892" width="250" height="26" as="geometry" />
        </mxCell>
        <mxCell id="sWKYmD87pAxfQqB18a7g-238" value="- MouseOver(ImageView cardView) : void" style="text;align=left;verticalAlign=top;spacingLeft=4;spacingRight=4;overflow=hidden;rotatable=0;points=[[0,0.5],[1,0.5]];portConstraint=eastwest;" vertex="1" parent="sWKYmD87pAxfQqB18a7g-1">
          <mxGeometry y="918" width="250" height="26" as="geometry" />
        </mxCell>
        <mxCell id="sWKYmD87pAxfQqB18a7g-239" value="- MouseExit(ImageView cardView) : void" style="text;align=left;verticalAlign=top;spacingLeft=4;spacingRight=4;overflow=hidden;rotatable=0;points=[[0,0.5],[1,0.5]];portConstraint=eastwest;" vertex="1" parent="sWKYmD87pAxfQqB18a7g-1">
          <mxGeometry y="944" width="250" height="26" as="geometry" />
        </mxCell>
        <mxCell id="sWKYmD87pAxfQqB18a7g-241" value="+ updatePlayerHp() : void" style="text;align=left;verticalAlign=top;spacingLeft=4;spacingRight=4;overflow=hidden;rotatable=0;points=[[0,0.5],[1,0.5]];portConstraint=eastwest;" vertex="1" parent="sWKYmD87pAxfQqB18a7g-1">
          <mxGeometry y="970" width="250" height="26" as="geometry" />
        </mxCell>
        <mxCell id="sWKYmD87pAxfQqB18a7g-243" value="+ updateEnemyHp() : void" style="text;align=left;verticalAlign=top;spacingLeft=4;spacingRight=4;overflow=hidden;rotatable=0;points=[[0,0.5],[1,0.5]];portConstraint=eastwest;" vertex="1" parent="sWKYmD87pAxfQqB18a7g-1">
          <mxGeometry y="996" width="250" height="26" as="geometry" />
        </mxCell>
        <mxCell id="sWKYmD87pAxfQqB18a7g-245" value="+ setPlayerDeck() : void" style="text;align=left;verticalAlign=top;spacingLeft=4;spacingRight=4;overflow=hidden;rotatable=0;points=[[0,0.5],[1,0.5]];portConstraint=eastwest;" vertex="1" parent="sWKYmD87pAxfQqB18a7g-1">
          <mxGeometry y="1022" width="250" height="26" as="geometry" />
        </mxCell>
        <mxCell id="sWKYmD87pAxfQqB18a7g-246" value="+ setEnemyDeck() : void" style="text;align=left;verticalAlign=top;spacingLeft=4;spacingRight=4;overflow=hidden;rotatable=0;points=[[0,0.5],[1,0.5]];portConstraint=eastwest;" vertex="1" parent="sWKYmD87pAxfQqB18a7g-1">
          <mxGeometry y="1048" width="250" height="26" as="geometry" />
        </mxCell>
        <mxCell id="sWKYmD87pAxfQqB18a7g-247" value="+ setReDeckVisible() : void" style="text;align=left;verticalAlign=top;spacingLeft=4;spacingRight=4;overflow=hidden;rotatable=0;points=[[0,0.5],[1,0.5]];portConstraint=eastwest;" vertex="1" parent="sWKYmD87pAxfQqB18a7g-1">
          <mxGeometry y="1074" width="250" height="26" as="geometry" />
        </mxCell>
        <mxCell id="sWKYmD87pAxfQqB18a7g-248" value="+ setReDeckEvent() : void" style="text;align=left;verticalAlign=top;spacingLeft=4;spacingRight=4;overflow=hidden;rotatable=0;points=[[0,0.5],[1,0.5]];portConstraint=eastwest;" vertex="1" parent="sWKYmD87pAxfQqB18a7g-1">
          <mxGeometry y="1100" width="250" height="26" as="geometry" />
        </mxCell>
        <mxCell id="sWKYmD87pAxfQqB18a7g-249" value="+ setNewGameVisible() : void" style="text;align=left;verticalAlign=top;spacingLeft=4;spacingRight=4;overflow=hidden;rotatable=0;points=[[0,0.5],[1,0.5]];portConstraint=eastwest;" vertex="1" parent="sWKYmD87pAxfQqB18a7g-1">
          <mxGeometry y="1126" width="250" height="26" as="geometry" />
        </mxCell>
        <mxCell id="sWKYmD87pAxfQqB18a7g-250" value="+ setNewGameEvent() : void" style="text;align=left;verticalAlign=top;spacingLeft=4;spacingRight=4;overflow=hidden;rotatable=0;points=[[0,0.5],[1,0.5]];portConstraint=eastwest;" vertex="1" parent="sWKYmD87pAxfQqB18a7g-1">
          <mxGeometry y="1152" width="250" height="26" as="geometry" />
        </mxCell>
        <mxCell id="sWKYmD87pAxfQqB18a7g-252" value="+ setExitVisible() : void" style="text;align=left;verticalAlign=top;spacingLeft=4;spacingRight=4;overflow=hidden;rotatable=0;points=[[0,0.5],[1,0.5]];portConstraint=eastwest;" vertex="1" parent="sWKYmD87pAxfQqB18a7g-1">
          <mxGeometry y="1178" width="250" height="26" as="geometry" />
        </mxCell>
        <mxCell id="sWKYmD87pAxfQqB18a7g-251" value="+ setExitEvent() : void" style="text;align=left;verticalAlign=top;spacingLeft=4;spacingRight=4;overflow=hidden;rotatable=0;points=[[0,0.5],[1,0.5]];portConstraint=eastwest;" vertex="1" parent="sWKYmD87pAxfQqB18a7g-1">
          <mxGeometry y="1204" width="250" height="26" as="geometry" />
        </mxCell>
        <mxCell id="sWKYmD87pAxfQqB18a7g-253" value="+ reDeck() : void" style="text;align=left;verticalAlign=top;spacingLeft=4;spacingRight=4;overflow=hidden;rotatable=0;points=[[0,0.5],[1,0.5]];portConstraint=eastwest;" vertex="1" parent="sWKYmD87pAxfQqB18a7g-1">
          <mxGeometry y="1230" width="250" height="26" as="geometry" />
        </mxCell>
        <mxCell id="sWKYmD87pAxfQqB18a7g-254" value="+ exit() : void" style="text;align=left;verticalAlign=top;spacingLeft=4;spacingRight=4;overflow=hidden;rotatable=0;points=[[0,0.5],[1,0.5]];portConstraint=eastwest;" vertex="1" parent="sWKYmD87pAxfQqB18a7g-1">
          <mxGeometry y="1256" width="250" height="26" as="geometry" />
        </mxCell>
        <mxCell id="sWKYmD87pAxfQqB18a7g-255" value="+ setEndGame() : void" style="text;align=left;verticalAlign=top;spacingLeft=4;spacingRight=4;overflow=hidden;rotatable=0;points=[[0,0.5],[1,0.5]];portConstraint=eastwest;" vertex="1" parent="sWKYmD87pAxfQqB18a7g-1">
          <mxGeometry y="1282" width="250" height="26" as="geometry" />
        </mxCell>
        <mxCell id="sWKYmD87pAxfQqB18a7g-256" value="+ NewGame() : void" style="text;align=left;verticalAlign=top;spacingLeft=4;spacingRight=4;overflow=hidden;rotatable=0;points=[[0,0.5],[1,0.5]];portConstraint=eastwest;" vertex="1" parent="sWKYmD87pAxfQqB18a7g-1">
          <mxGeometry y="1308" width="250" height="26" as="geometry" />
        </mxCell>
        <mxCell id="sWKYmD87pAxfQqB18a7g-257" value="+ setPlayerClick(boolean canClicked) : void" style="text;align=left;verticalAlign=top;spacingLeft=4;spacingRight=4;overflow=hidden;rotatable=0;points=[[0,0.5],[1,0.5]];portConstraint=eastwest;" vertex="1" parent="sWKYmD87pAxfQqB18a7g-1">
          <mxGeometry y="1334" width="250" height="26" as="geometry" />
        </mxCell>
        <mxCell id="sWKYmD87pAxfQqB18a7g-258" value="+ setMessage(String msg) : void" style="text;align=left;verticalAlign=top;spacingLeft=4;spacingRight=4;overflow=hidden;rotatable=0;points=[[0,0.5],[1,0.5]];portConstraint=eastwest;" vertex="1" parent="sWKYmD87pAxfQqB18a7g-1">
          <mxGeometry y="1360" width="250" height="26" as="geometry" />
        </mxCell>
        <mxCell id="sWKYmD87pAxfQqB18a7g-259" value="+ imageShakeEffect(ImageView img) : void" style="text;align=left;verticalAlign=top;spacingLeft=4;spacingRight=4;overflow=hidden;rotatable=0;points=[[0,0.5],[1,0.5]];portConstraint=eastwest;" vertex="1" parent="sWKYmD87pAxfQqB18a7g-1">
          <mxGeometry y="1386" width="250" height="26" as="geometry" />
        </mxCell>
        <mxCell id="sWKYmD87pAxfQqB18a7g-260" value="+ imageFlipEffect(ImageView img) : void" style="text;align=left;verticalAlign=top;spacingLeft=4;spacingRight=4;overflow=hidden;rotatable=0;points=[[0,0.5],[1,0.5]];portConstraint=eastwest;" vertex="1" parent="sWKYmD87pAxfQqB18a7g-1">
          <mxGeometry y="1412" width="250" height="26" as="geometry" />
        </mxCell>
        <mxCell id="sWKYmD87pAxfQqB18a7g-261" value="- setHover() : void" style="text;align=left;verticalAlign=top;spacingLeft=4;spacingRight=4;overflow=hidden;rotatable=0;points=[[0,0.5],[1,0.5]];portConstraint=eastwest;" vertex="1" parent="sWKYmD87pAxfQqB18a7g-1">
          <mxGeometry y="1438" width="250" height="26" as="geometry" />
        </mxCell>
        <mxCell id="sWKYmD87pAxfQqB18a7g-7" value="Deck" style="swimlane;fontStyle=0;align=center;verticalAlign=top;childLayout=stackLayout;horizontal=1;startSize=26;horizontalStack=0;resizeParent=1;resizeLast=0;collapsible=1;marginBottom=0;rounded=0;shadow=0;strokeWidth=1;" vertex="1" parent="WIyWlLk6GJQsqaUBKTNV-1">
          <mxGeometry x="370" y="600" width="220" height="310" as="geometry">
            <mxRectangle x="130" y="380" width="160" height="26" as="alternateBounds" />
          </mxGeometry>
        </mxCell>
        <mxCell id="sWKYmD87pAxfQqB18a7g-8" value="CARDS : List&lt;Card&gt;" style="text;align=left;verticalAlign=top;spacingLeft=4;spacingRight=4;overflow=hidden;rotatable=0;points=[[0,0.5],[1,0.5]];portConstraint=eastwest;" vertex="1" parent="sWKYmD87pAxfQqB18a7g-7">
          <mxGeometry y="26" width="220" height="26" as="geometry" />
        </mxCell>
        <mxCell id="sWKYmD87pAxfQqB18a7g-9" value="RANDOM : Random" style="text;align=left;verticalAlign=top;spacingLeft=4;spacingRight=4;overflow=hidden;rotatable=0;points=[[0,0.5],[1,0.5]];portConstraint=eastwest;rounded=0;shadow=0;html=0;" vertex="1" parent="sWKYmD87pAxfQqB18a7g-7">
          <mxGeometry y="52" width="220" height="26" as="geometry" />
        </mxCell>
        <mxCell id="sWKYmD87pAxfQqB18a7g-12" value="MAXDECKSIZE : int" style="text;align=left;verticalAlign=top;spacingLeft=4;spacingRight=4;overflow=hidden;rotatable=0;points=[[0,0.5],[1,0.5]];portConstraint=eastwest;fontStyle=4" vertex="1" parent="sWKYmD87pAxfQqB18a7g-7">
          <mxGeometry y="78" width="220" height="26" as="geometry" />
        </mxCell>
        <mxCell id="sWKYmD87pAxfQqB18a7g-184" value="PROBABILITYHEAL : double" style="text;align=left;verticalAlign=top;spacingLeft=4;spacingRight=4;overflow=hidden;rotatable=0;points=[[0,0.5],[1,0.5]];portConstraint=eastwest;" vertex="1" parent="sWKYmD87pAxfQqB18a7g-7">
          <mxGeometry y="104" width="220" height="26" as="geometry" />
        </mxCell>
        <mxCell id="sWKYmD87pAxfQqB18a7g-10" value="" style="line;html=1;strokeWidth=1;align=left;verticalAlign=middle;spacingTop=-1;spacingLeft=3;spacingRight=3;rotatable=0;labelPosition=right;points=[];portConstraint=eastwest;" vertex="1" parent="sWKYmD87pAxfQqB18a7g-7">
          <mxGeometry y="130" width="220" height="8" as="geometry" />
        </mxCell>
        <mxCell id="sWKYmD87pAxfQqB18a7g-186" value="- getRandomCardType()" style="text;align=left;verticalAlign=top;spacingLeft=4;spacingRight=4;overflow=hidden;rotatable=0;points=[[0,0.5],[1,0.5]];portConstraint=eastwest;" vertex="1" parent="sWKYmD87pAxfQqB18a7g-7">
          <mxGeometry y="138" width="220" height="26" as="geometry" />
        </mxCell>
        <mxCell id="sWKYmD87pAxfQqB18a7g-187" value="- createDeck() : void" style="text;align=left;verticalAlign=top;spacingLeft=4;spacingRight=4;overflow=hidden;rotatable=0;points=[[0,0.5],[1,0.5]];portConstraint=eastwest;" vertex="1" parent="sWKYmD87pAxfQqB18a7g-7">
          <mxGeometry y="164" width="220" height="26" as="geometry" />
        </mxCell>
        <mxCell id="sWKYmD87pAxfQqB18a7g-196" value="+ getMaxDeckSize() : int" style="text;align=left;verticalAlign=top;spacingLeft=4;spacingRight=4;overflow=hidden;rotatable=0;points=[[0,0.5],[1,0.5]];portConstraint=eastwest;" vertex="1" parent="sWKYmD87pAxfQqB18a7g-7">
          <mxGeometry y="190" width="220" height="26" as="geometry" />
        </mxCell>
        <mxCell id="sWKYmD87pAxfQqB18a7g-197" value="+ getCard(int index) : Card" style="text;align=left;verticalAlign=top;spacingLeft=4;spacingRight=4;overflow=hidden;rotatable=0;points=[[0,0.5],[1,0.5]];portConstraint=eastwest;" vertex="1" parent="sWKYmD87pAxfQqB18a7g-7">
          <mxGeometry y="216" width="220" height="26" as="geometry" />
        </mxCell>
        <mxCell id="sWKYmD87pAxfQqB18a7g-198" value="+ reloadDeck() : void" style="text;align=left;verticalAlign=top;spacingLeft=4;spacingRight=4;overflow=hidden;rotatable=0;points=[[0,0.5],[1,0.5]];portConstraint=eastwest;" vertex="1" parent="sWKYmD87pAxfQqB18a7g-7">
          <mxGeometry y="242" width="220" height="26" as="geometry" />
        </mxCell>
        <mxCell id="sWKYmD87pAxfQqB18a7g-199" value="+ setProbability(double Values) : void" style="text;align=left;verticalAlign=top;spacingLeft=4;spacingRight=4;overflow=hidden;rotatable=0;points=[[0,0.5],[1,0.5]];portConstraint=eastwest;" vertex="1" parent="sWKYmD87pAxfQqB18a7g-7">
          <mxGeometry y="268" width="220" height="26" as="geometry" />
        </mxCell>
        <mxCell id="sWKYmD87pAxfQqB18a7g-19" value="&lt;&lt;interface&gt;&gt;&#xa;IGameCharacter" style="swimlane;fontStyle=2;align=center;verticalAlign=top;childLayout=stackLayout;horizontal=1;startSize=41;horizontalStack=0;resizeParent=1;resizeLast=0;collapsible=1;marginBottom=0;rounded=0;shadow=0;strokeWidth=1;" vertex="1" parent="WIyWlLk6GJQsqaUBKTNV-1">
          <mxGeometry x="340" y="1199" width="190" height="151" as="geometry">
            <mxRectangle x="130" y="380" width="160" height="26" as="alternateBounds" />
          </mxGeometry>
        </mxCell>
        <mxCell id="sWKYmD87pAxfQqB18a7g-20" value="takeDamage(int damage) : void" style="text;align=left;verticalAlign=top;spacingLeft=4;spacingRight=4;overflow=hidden;rotatable=0;points=[[0,0.5],[1,0.5]];portConstraint=eastwest;" vertex="1" parent="sWKYmD87pAxfQqB18a7g-19">
          <mxGeometry y="41" width="190" height="26" as="geometry" />
        </mxCell>
        <mxCell id="sWKYmD87pAxfQqB18a7g-21" value="getHP() : int" style="text;align=left;verticalAlign=top;spacingLeft=4;spacingRight=4;overflow=hidden;rotatable=0;points=[[0,0.5],[1,0.5]];portConstraint=eastwest;rounded=0;shadow=0;html=0;" vertex="1" parent="sWKYmD87pAxfQqB18a7g-19">
          <mxGeometry y="67" width="190" height="26" as="geometry" />
        </mxCell>
        <mxCell id="sWKYmD87pAxfQqB18a7g-263" value="getMaxHP() : int" style="text;align=left;verticalAlign=top;spacingLeft=4;spacingRight=4;overflow=hidden;rotatable=0;points=[[0,0.5],[1,0.5]];portConstraint=eastwest;rounded=0;shadow=0;html=0;" vertex="1" parent="sWKYmD87pAxfQqB18a7g-19">
          <mxGeometry y="93" width="190" height="26" as="geometry" />
        </mxCell>
        <mxCell id="sWKYmD87pAxfQqB18a7g-264" value="isAlive() : boolean" style="text;align=left;verticalAlign=top;spacingLeft=4;spacingRight=4;overflow=hidden;rotatable=0;points=[[0,0.5],[1,0.5]];portConstraint=eastwest;rounded=0;shadow=0;html=0;" vertex="1" parent="sWKYmD87pAxfQqB18a7g-19">
          <mxGeometry y="119" width="190" height="26" as="geometry" />
        </mxCell>
        <mxCell id="sWKYmD87pAxfQqB18a7g-31" value="Card" style="swimlane;fontStyle=0;align=center;verticalAlign=top;childLayout=stackLayout;horizontal=1;startSize=26;horizontalStack=0;resizeParent=1;resizeLast=0;collapsible=1;marginBottom=0;rounded=0;shadow=0;strokeWidth=1;" vertex="1" parent="WIyWlLk6GJQsqaUBKTNV-1">
          <mxGeometry x="-230" y="150" width="180" height="310" as="geometry">
            <mxRectangle x="130" y="380" width="160" height="26" as="alternateBounds" />
          </mxGeometry>
        </mxCell>
        <mxCell id="sWKYmD87pAxfQqB18a7g-32" value="- type : CardType" style="text;align=left;verticalAlign=top;spacingLeft=4;spacingRight=4;overflow=hidden;rotatable=0;points=[[0,0.5],[1,0.5]];portConstraint=eastwest;" vertex="1" parent="sWKYmD87pAxfQqB18a7g-31">
          <mxGeometry y="26" width="180" height="26" as="geometry" />
        </mxCell>
        <mxCell id="sWKYmD87pAxfQqB18a7g-33" value="- isFaceUp : boolean" style="text;align=left;verticalAlign=top;spacingLeft=4;spacingRight=4;overflow=hidden;rotatable=0;points=[[0,0.5],[1,0.5]];portConstraint=eastwest;rounded=0;shadow=0;html=0;" vertex="1" parent="sWKYmD87pAxfQqB18a7g-31">
          <mxGeometry y="52" width="180" height="26" as="geometry" />
        </mxCell>
        <mxCell id="sWKYmD87pAxfQqB18a7g-34" value="" style="line;html=1;strokeWidth=1;align=left;verticalAlign=middle;spacingTop=-1;spacingLeft=3;spacingRight=3;rotatable=0;labelPosition=right;points=[];portConstraint=eastwest;" vertex="1" parent="sWKYmD87pAxfQqB18a7g-31">
          <mxGeometry y="78" width="180" height="8" as="geometry" />
        </mxCell>
        <mxCell id="sWKYmD87pAxfQqB18a7g-182" value="+ isFaceUp() : boolean" style="text;align=left;verticalAlign=top;spacingLeft=4;spacingRight=4;overflow=hidden;rotatable=0;points=[[0,0.5],[1,0.5]];portConstraint=eastwest;fontStyle=0" vertex="1" parent="sWKYmD87pAxfQqB18a7g-31">
          <mxGeometry y="86" width="180" height="26" as="geometry" />
        </mxCell>
        <mxCell id="sWKYmD87pAxfQqB18a7g-35" value="+ getAttack() : int" style="text;align=left;verticalAlign=top;spacingLeft=4;spacingRight=4;overflow=hidden;rotatable=0;points=[[0,0.5],[1,0.5]];portConstraint=eastwest;fontStyle=0" vertex="1" parent="sWKYmD87pAxfQqB18a7g-31">
          <mxGeometry y="112" width="180" height="26" as="geometry" />
        </mxCell>
        <mxCell id="sWKYmD87pAxfQqB18a7g-177" value="+ getDefense() : int" style="text;align=left;verticalAlign=top;spacingLeft=4;spacingRight=4;overflow=hidden;rotatable=0;points=[[0,0.5],[1,0.5]];portConstraint=eastwest;fontStyle=0" vertex="1" parent="sWKYmD87pAxfQqB18a7g-31">
          <mxGeometry y="138" width="180" height="26" as="geometry" />
        </mxCell>
        <mxCell id="sWKYmD87pAxfQqB18a7g-178" value="+ getHp() : int" style="text;align=left;verticalAlign=top;spacingLeft=4;spacingRight=4;overflow=hidden;rotatable=0;points=[[0,0.5],[1,0.5]];portConstraint=eastwest;fontStyle=0" vertex="1" parent="sWKYmD87pAxfQqB18a7g-31">
          <mxGeometry y="164" width="180" height="26" as="geometry" />
        </mxCell>
        <mxCell id="sWKYmD87pAxfQqB18a7g-180" value="+ getImagePath() : String" style="text;align=left;verticalAlign=top;spacingLeft=4;spacingRight=4;overflow=hidden;rotatable=0;points=[[0,0.5],[1,0.5]];portConstraint=eastwest;fontStyle=0" vertex="1" parent="sWKYmD87pAxfQqB18a7g-31">
          <mxGeometry y="190" width="180" height="26" as="geometry" />
        </mxCell>
        <mxCell id="sWKYmD87pAxfQqB18a7g-181" value="+ getAttackType() : AttackType" style="text;align=left;verticalAlign=top;spacingLeft=4;spacingRight=4;overflow=hidden;rotatable=0;points=[[0,0.5],[1,0.5]];portConstraint=eastwest;fontStyle=0" vertex="1" parent="sWKYmD87pAxfQqB18a7g-31">
          <mxGeometry y="216" width="180" height="26" as="geometry" />
        </mxCell>
        <mxCell id="sWKYmD87pAxfQqB18a7g-179" value="+ isFaceUp() : boolean" style="text;align=left;verticalAlign=top;spacingLeft=4;spacingRight=4;overflow=hidden;rotatable=0;points=[[0,0.5],[1,0.5]];portConstraint=eastwest;fontStyle=0" vertex="1" parent="sWKYmD87pAxfQqB18a7g-31">
          <mxGeometry y="242" width="180" height="26" as="geometry" />
        </mxCell>
        <mxCell id="sWKYmD87pAxfQqB18a7g-36" value="+ flipCard() : void" style="text;align=left;verticalAlign=top;spacingLeft=4;spacingRight=4;overflow=hidden;rotatable=0;points=[[0,0.5],[1,0.5]];portConstraint=eastwest;" vertex="1" parent="sWKYmD87pAxfQqB18a7g-31">
          <mxGeometry y="268" width="180" height="42" as="geometry" />
        </mxCell>
        <mxCell id="sWKYmD87pAxfQqB18a7g-37" value="&lt;&lt;enumerator&gt;&gt; &#xa;CardType" style="swimlane;fontStyle=0;align=center;verticalAlign=top;childLayout=stackLayout;horizontal=1;startSize=40;horizontalStack=0;resizeParent=1;resizeLast=0;collapsible=1;marginBottom=0;rounded=0;shadow=0;strokeWidth=1;" vertex="1" parent="WIyWlLk6GJQsqaUBKTNV-1">
          <mxGeometry x="-750" y="870" width="430" height="660" as="geometry">
            <mxRectangle x="130" y="380" width="160" height="26" as="alternateBounds" />
          </mxGeometry>
        </mxCell>
        <mxCell id="sWKYmD87pAxfQqB18a7g-122" value="+ PALADIN(100,100,50,&quot;/Resources/c01.png&quot;,AttackType.PHYSICAL)" style="text;align=left;verticalAlign=top;spacingLeft=4;spacingRight=4;overflow=hidden;rotatable=0;points=[[0,0.5],[1,0.5]];portConstraint=eastwest;" vertex="1" parent="sWKYmD87pAxfQqB18a7g-37">
          <mxGeometry y="40" width="430" height="26" as="geometry" />
        </mxCell>
        <mxCell id="sWKYmD87pAxfQqB18a7g-123" value="+ GUARDIAN(80,150,60,&quot;/Resources/c02.png&quot;,AttackType.PHYSICAL)" style="text;align=left;verticalAlign=top;spacingLeft=4;spacingRight=4;overflow=hidden;rotatable=0;points=[[0,0.5],[1,0.5]];portConstraint=eastwest;" vertex="1" parent="sWKYmD87pAxfQqB18a7g-37">
          <mxGeometry y="66" width="430" height="26" as="geometry" />
        </mxCell>
        <mxCell id="sWKYmD87pAxfQqB18a7g-124" value="+ MONK(120,80,30,&quot;/Resources/c03.png&quot;,AttackType.PHYSICAL)" style="text;align=left;verticalAlign=top;spacingLeft=4;spacingRight=4;overflow=hidden;rotatable=0;points=[[0,0.5],[1,0.5]];portConstraint=eastwest;" vertex="1" parent="sWKYmD87pAxfQqB18a7g-37">
          <mxGeometry y="92" width="430" height="26" as="geometry" />
        </mxCell>
        <mxCell id="sWKYmD87pAxfQqB18a7g-125" value="+ BARBARIAN(90,90,40,&quot;/Resources/c04.png&quot;,AttackType.PHYSICAL)" style="text;align=left;verticalAlign=top;spacingLeft=4;spacingRight=4;overflow=hidden;rotatable=0;points=[[0,0.5],[1,0.5]];portConstraint=eastwest;" vertex="1" parent="sWKYmD87pAxfQqB18a7g-37">
          <mxGeometry y="118" width="430" height="26" as="geometry" />
        </mxCell>
        <mxCell id="sWKYmD87pAxfQqB18a7g-126" value="+ ASSASSIN(180,80,20,&quot;/Resources/c05.png&quot;,AttackType.PHYSICAL)" style="text;align=left;verticalAlign=top;spacingLeft=4;spacingRight=4;overflow=hidden;rotatable=0;points=[[0,0.5],[1,0.5]];portConstraint=eastwest;" vertex="1" parent="sWKYmD87pAxfQqB18a7g-37">
          <mxGeometry y="144" width="430" height="26" as="geometry" />
        </mxCell>
        <mxCell id="sWKYmD87pAxfQqB18a7g-127" value="+ BARD(50,60,30,&quot;/Resources/c06.png&quot;,AttackType.MAGIC)" style="text;align=left;verticalAlign=top;spacingLeft=4;spacingRight=4;overflow=hidden;rotatable=0;points=[[0,0.5],[1,0.5]];portConstraint=eastwest;" vertex="1" parent="sWKYmD87pAxfQqB18a7g-37">
          <mxGeometry y="170" width="430" height="26" as="geometry" />
        </mxCell>
        <mxCell id="sWKYmD87pAxfQqB18a7g-128" value="+ SWASHBUCKLER(150,90,40,&quot;/Resources/c07.png&quot;,AttackType.PHYSICAL)" style="text;align=left;verticalAlign=top;spacingLeft=4;spacingRight=4;overflow=hidden;rotatable=0;points=[[0,0.5],[1,0.5]];portConstraint=eastwest;" vertex="1" parent="sWKYmD87pAxfQqB18a7g-37">
          <mxGeometry y="196" width="430" height="26" as="geometry" />
        </mxCell>
        <mxCell id="sWKYmD87pAxfQqB18a7g-129" value="+ RANGER(150,60,30,&quot;/Resources/c08.png&quot;,AttackType.PHYSICAL)" style="text;align=left;verticalAlign=top;spacingLeft=4;spacingRight=4;overflow=hidden;rotatable=0;points=[[0,0.5],[1,0.5]];portConstraint=eastwest;" vertex="1" parent="sWKYmD87pAxfQqB18a7g-37">
          <mxGeometry y="222" width="430" height="26" as="geometry" />
        </mxCell>
        <mxCell id="sWKYmD87pAxfQqB18a7g-130" value="+ CLERIC(200,50,50,&quot;/Resources/c09.png&quot;,AttackType.HEAL)" style="text;align=left;verticalAlign=top;spacingLeft=4;spacingRight=4;overflow=hidden;rotatable=0;points=[[0,0.5],[1,0.5]];portConstraint=eastwest;" vertex="1" parent="sWKYmD87pAxfQqB18a7g-37">
          <mxGeometry y="248" width="430" height="26" as="geometry" />
        </mxCell>
        <mxCell id="sWKYmD87pAxfQqB18a7g-131" value="+ DRUID(100,50,40,&quot;/Resources/c10.png&quot;,AttackType.MAGIC)" style="text;align=left;verticalAlign=top;spacingLeft=4;spacingRight=4;overflow=hidden;rotatable=0;points=[[0,0.5],[1,0.5]];portConstraint=eastwest;" vertex="1" parent="sWKYmD87pAxfQqB18a7g-37">
          <mxGeometry y="274" width="430" height="26" as="geometry" />
        </mxCell>
        <mxCell id="sWKYmD87pAxfQqB18a7g-132" value="+ SHAMAN(100,50,50,&quot;/Resources/c11.png&quot;,AttackType.MAGIC)" style="text;align=left;verticalAlign=top;spacingLeft=4;spacingRight=4;overflow=hidden;rotatable=0;points=[[0,0.5],[1,0.5]];portConstraint=eastwest;" vertex="1" parent="sWKYmD87pAxfQqB18a7g-37">
          <mxGeometry y="300" width="430" height="26" as="geometry" />
        </mxCell>
        <mxCell id="sWKYmD87pAxfQqB18a7g-133" value="+ ALCHEMIST(130,50,40,&quot;/Resources/c12.png&quot;,AttackType.MAGIC)" style="text;align=left;verticalAlign=top;spacingLeft=4;spacingRight=4;overflow=hidden;rotatable=0;points=[[0,0.5],[1,0.5]];portConstraint=eastwest;" vertex="1" parent="sWKYmD87pAxfQqB18a7g-37">
          <mxGeometry y="326" width="430" height="26" as="geometry" />
        </mxCell>
        <mxCell id="sWKYmD87pAxfQqB18a7g-134" value="+ MAGE(200,50,40,&quot;/Resources/c13.png&quot;,AttackType.MAGIC)" style="text;align=left;verticalAlign=top;spacingLeft=4;spacingRight=4;overflow=hidden;rotatable=0;points=[[0,0.5],[1,0.5]];portConstraint=eastwest;" vertex="1" parent="sWKYmD87pAxfQqB18a7g-37">
          <mxGeometry y="352" width="430" height="26" as="geometry" />
        </mxCell>
        <mxCell id="sWKYmD87pAxfQqB18a7g-135" value="+ ENCHANTER(120,50,40,&quot;/Resources/c14.png&quot;,AttackType.MAGIC)" style="text;align=left;verticalAlign=top;spacingLeft=4;spacingRight=4;overflow=hidden;rotatable=0;points=[[0,0.5],[1,0.5]];portConstraint=eastwest;" vertex="1" parent="sWKYmD87pAxfQqB18a7g-37">
          <mxGeometry y="378" width="430" height="26" as="geometry" />
        </mxCell>
        <mxCell id="sWKYmD87pAxfQqB18a7g-136" value="+ SUMMONER(100,50,30,&quot;/Resources/c15.png&quot;,AttackType.MAGIC)" style="text;align=left;verticalAlign=top;spacingLeft=4;spacingRight=4;overflow=hidden;rotatable=0;points=[[0,0.5],[1,0.5]];portConstraint=eastwest;" vertex="1" parent="sWKYmD87pAxfQqB18a7g-37">
          <mxGeometry y="404" width="430" height="26" as="geometry" />
        </mxCell>
        <mxCell id="sWKYmD87pAxfQqB18a7g-137" value="+ NECROMANCER(80,50,30,&quot;/Resources/c16.png&quot;,AttackType.MAGIC)" style="text;align=left;verticalAlign=top;spacingLeft=4;spacingRight=4;overflow=hidden;rotatable=0;points=[[0,0.5],[1,0.5]];portConstraint=eastwest;" vertex="1" parent="sWKYmD87pAxfQqB18a7g-37">
          <mxGeometry y="430" width="430" height="26" as="geometry" />
        </mxCell>
        <mxCell id="sWKYmD87pAxfQqB18a7g-138" value="" style="line;strokeWidth=1;fillColor=none;align=left;verticalAlign=middle;spacingTop=-1;spacingLeft=3;spacingRight=3;rotatable=0;labelPosition=right;points=[];portConstraint=eastwest;strokeColor=inherit;" vertex="1" parent="sWKYmD87pAxfQqB18a7g-37">
          <mxGeometry y="456" width="430" height="8" as="geometry" />
        </mxCell>
        <mxCell id="sWKYmD87pAxfQqB18a7g-139" value="- ATTACK : int" style="text;align=left;verticalAlign=top;spacingLeft=4;spacingRight=4;overflow=hidden;rotatable=0;points=[[0,0.5],[1,0.5]];portConstraint=eastwest;" vertex="1" parent="sWKYmD87pAxfQqB18a7g-37">
          <mxGeometry y="464" width="430" height="26" as="geometry" />
        </mxCell>
        <mxCell id="sWKYmD87pAxfQqB18a7g-140" value="- DEFENSE : int&#xa;" style="text;align=left;verticalAlign=top;spacingLeft=4;spacingRight=4;overflow=hidden;rotatable=0;points=[[0,0.5],[1,0.5]];portConstraint=eastwest;" vertex="1" parent="sWKYmD87pAxfQqB18a7g-37">
          <mxGeometry y="490" width="430" height="26" as="geometry" />
        </mxCell>
        <mxCell id="sWKYmD87pAxfQqB18a7g-141" value="- HP : int" style="text;align=left;verticalAlign=top;spacingLeft=4;spacingRight=4;overflow=hidden;rotatable=0;points=[[0,0.5],[1,0.5]];portConstraint=eastwest;" vertex="1" parent="sWKYmD87pAxfQqB18a7g-37">
          <mxGeometry y="516" width="430" height="26" as="geometry" />
        </mxCell>
        <mxCell id="sWKYmD87pAxfQqB18a7g-142" value="- IMAGEPATH : String" style="text;align=left;verticalAlign=top;spacingLeft=4;spacingRight=4;overflow=hidden;rotatable=0;points=[[0,0.5],[1,0.5]];portConstraint=eastwest;" vertex="1" parent="sWKYmD87pAxfQqB18a7g-37">
          <mxGeometry y="542" width="430" height="26" as="geometry" />
        </mxCell>
        <mxCell id="sWKYmD87pAxfQqB18a7g-143" value="- BACKIMAGEPATH : String" style="text;align=left;verticalAlign=top;spacingLeft=4;spacingRight=4;overflow=hidden;rotatable=0;points=[[0,0.5],[1,0.5]];portConstraint=eastwest;fontStyle=4" vertex="1" parent="sWKYmD87pAxfQqB18a7g-37">
          <mxGeometry y="568" width="430" height="26" as="geometry" />
        </mxCell>
        <mxCell id="sWKYmD87pAxfQqB18a7g-144" value="- ATTACKTYPE : attackType" style="text;align=left;verticalAlign=top;spacingLeft=4;spacingRight=4;overflow=hidden;rotatable=0;points=[[0,0.5],[1,0.5]];portConstraint=eastwest;" vertex="1" parent="sWKYmD87pAxfQqB18a7g-37">
          <mxGeometry y="594" width="430" height="26" as="geometry" />
        </mxCell>
        <mxCell id="sWKYmD87pAxfQqB18a7g-146" value="" style="line;strokeWidth=1;fillColor=none;align=left;verticalAlign=middle;spacingTop=-1;spacingLeft=3;spacingRight=3;rotatable=0;labelPosition=right;points=[];portConstraint=eastwest;strokeColor=inherit;" vertex="1" parent="sWKYmD87pAxfQqB18a7g-37">
          <mxGeometry y="620" width="430" height="8" as="geometry" />
        </mxCell>
        <mxCell id="sWKYmD87pAxfQqB18a7g-145" value="~ CardType(int attack, int defense, int hp, String imagePath, AttackType Type)" style="text;align=left;verticalAlign=top;spacingLeft=4;spacingRight=4;overflow=hidden;rotatable=0;points=[[0,0.5],[1,0.5]];portConstraint=eastwest;" vertex="1" parent="sWKYmD87pAxfQqB18a7g-37">
          <mxGeometry y="628" width="430" height="26" as="geometry" />
        </mxCell>
        <mxCell id="sWKYmD87pAxfQqB18a7g-43" value="GameCharacterAsset" style="swimlane;fontStyle=0;align=center;verticalAlign=top;childLayout=stackLayout;horizontal=1;startSize=26;horizontalStack=0;resizeParent=1;resizeLast=0;collapsible=1;marginBottom=0;rounded=0;shadow=0;strokeWidth=1;" vertex="1" parent="WIyWlLk6GJQsqaUBKTNV-1">
          <mxGeometry x="-220" y="670" width="160" height="138" as="geometry">
            <mxRectangle x="130" y="380" width="160" height="26" as="alternateBounds" />
          </mxGeometry>
        </mxCell>
        <mxCell id="sWKYmD87pAxfQqB18a7g-44" value="Student Number" style="text;align=left;verticalAlign=top;spacingLeft=4;spacingRight=4;overflow=hidden;rotatable=0;points=[[0,0.5],[1,0.5]];portConstraint=eastwest;" vertex="1" parent="sWKYmD87pAxfQqB18a7g-43">
          <mxGeometry y="26" width="160" height="26" as="geometry" />
        </mxCell>
        <mxCell id="sWKYmD87pAxfQqB18a7g-45" value="Average Mark" style="text;align=left;verticalAlign=top;spacingLeft=4;spacingRight=4;overflow=hidden;rotatable=0;points=[[0,0.5],[1,0.5]];portConstraint=eastwest;rounded=0;shadow=0;html=0;" vertex="1" parent="sWKYmD87pAxfQqB18a7g-43">
          <mxGeometry y="52" width="160" height="26" as="geometry" />
        </mxCell>
        <mxCell id="sWKYmD87pAxfQqB18a7g-46" value="" style="line;html=1;strokeWidth=1;align=left;verticalAlign=middle;spacingTop=-1;spacingLeft=3;spacingRight=3;rotatable=0;labelPosition=right;points=[];portConstraint=eastwest;" vertex="1" parent="sWKYmD87pAxfQqB18a7g-43">
          <mxGeometry y="78" width="160" height="8" as="geometry" />
        </mxCell>
        <mxCell id="sWKYmD87pAxfQqB18a7g-47" value="Is Eligible To Enroll" style="text;align=left;verticalAlign=top;spacingLeft=4;spacingRight=4;overflow=hidden;rotatable=0;points=[[0,0.5],[1,0.5]];portConstraint=eastwest;fontStyle=4" vertex="1" parent="sWKYmD87pAxfQqB18a7g-43">
          <mxGeometry y="86" width="160" height="26" as="geometry" />
        </mxCell>
        <mxCell id="sWKYmD87pAxfQqB18a7g-48" value="Get Seminars Taken" style="text;align=left;verticalAlign=top;spacingLeft=4;spacingRight=4;overflow=hidden;rotatable=0;points=[[0,0.5],[1,0.5]];portConstraint=eastwest;" vertex="1" parent="sWKYmD87pAxfQqB18a7g-43">
          <mxGeometry y="112" width="160" height="26" as="geometry" />
        </mxCell>
        <mxCell id="sWKYmD87pAxfQqB18a7g-49" value="Type" style="swimlane;fontStyle=0;align=center;verticalAlign=top;childLayout=stackLayout;horizontal=1;startSize=26;horizontalStack=0;resizeParent=1;resizeLast=0;collapsible=1;marginBottom=0;rounded=0;shadow=0;strokeWidth=1;" vertex="1" parent="WIyWlLk6GJQsqaUBKTNV-1">
          <mxGeometry x="-220" y="910" width="160" height="138" as="geometry">
            <mxRectangle x="130" y="380" width="160" height="26" as="alternateBounds" />
          </mxGeometry>
        </mxCell>
        <mxCell id="sWKYmD87pAxfQqB18a7g-50" value="Student Number" style="text;align=left;verticalAlign=top;spacingLeft=4;spacingRight=4;overflow=hidden;rotatable=0;points=[[0,0.5],[1,0.5]];portConstraint=eastwest;" vertex="1" parent="sWKYmD87pAxfQqB18a7g-49">
          <mxGeometry y="26" width="160" height="26" as="geometry" />
        </mxCell>
        <mxCell id="sWKYmD87pAxfQqB18a7g-51" value="Average Mark" style="text;align=left;verticalAlign=top;spacingLeft=4;spacingRight=4;overflow=hidden;rotatable=0;points=[[0,0.5],[1,0.5]];portConstraint=eastwest;rounded=0;shadow=0;html=0;" vertex="1" parent="sWKYmD87pAxfQqB18a7g-49">
          <mxGeometry y="52" width="160" height="26" as="geometry" />
        </mxCell>
        <mxCell id="sWKYmD87pAxfQqB18a7g-52" value="" style="line;html=1;strokeWidth=1;align=left;verticalAlign=middle;spacingTop=-1;spacingLeft=3;spacingRight=3;rotatable=0;labelPosition=right;points=[];portConstraint=eastwest;" vertex="1" parent="sWKYmD87pAxfQqB18a7g-49">
          <mxGeometry y="78" width="160" height="8" as="geometry" />
        </mxCell>
        <mxCell id="sWKYmD87pAxfQqB18a7g-53" value="Is Eligible To Enroll" style="text;align=left;verticalAlign=top;spacingLeft=4;spacingRight=4;overflow=hidden;rotatable=0;points=[[0,0.5],[1,0.5]];portConstraint=eastwest;fontStyle=4" vertex="1" parent="sWKYmD87pAxfQqB18a7g-49">
          <mxGeometry y="86" width="160" height="26" as="geometry" />
        </mxCell>
        <mxCell id="sWKYmD87pAxfQqB18a7g-54" value="Get Seminars Taken" style="text;align=left;verticalAlign=top;spacingLeft=4;spacingRight=4;overflow=hidden;rotatable=0;points=[[0,0.5],[1,0.5]];portConstraint=eastwest;" vertex="1" parent="sWKYmD87pAxfQqB18a7g-49">
          <mxGeometry y="112" width="160" height="26" as="geometry" />
        </mxCell>
        <mxCell id="sWKYmD87pAxfQqB18a7g-55" value="&lt;&lt;Interface&gt;&gt;&#xa;ICard" style="swimlane;fontStyle=2;align=center;verticalAlign=top;childLayout=stackLayout;horizontal=1;startSize=40;horizontalStack=0;resizeParent=1;resizeLast=0;collapsible=1;marginBottom=0;rounded=0;shadow=0;strokeWidth=1;" vertex="1" parent="WIyWlLk6GJQsqaUBKTNV-1">
          <mxGeometry x="-545" y="600" width="180" height="222" as="geometry">
            <mxRectangle x="130" y="380" width="160" height="26" as="alternateBounds" />
          </mxGeometry>
        </mxCell>
        <mxCell id="sWKYmD87pAxfQqB18a7g-56" value="~ getAttack() : int" style="text;align=left;verticalAlign=top;spacingLeft=4;spacingRight=4;overflow=hidden;rotatable=0;points=[[0,0.5],[1,0.5]];portConstraint=eastwest;" vertex="1" parent="sWKYmD87pAxfQqB18a7g-55">
          <mxGeometry y="40" width="180" height="26" as="geometry" />
        </mxCell>
        <mxCell id="sWKYmD87pAxfQqB18a7g-57" value="~ getDefense() : int" style="text;align=left;verticalAlign=top;spacingLeft=4;spacingRight=4;overflow=hidden;rotatable=0;points=[[0,0.5],[1,0.5]];portConstraint=eastwest;rounded=0;shadow=0;html=0;" vertex="1" parent="sWKYmD87pAxfQqB18a7g-55">
          <mxGeometry y="66" width="180" height="26" as="geometry" />
        </mxCell>
        <mxCell id="sWKYmD87pAxfQqB18a7g-154" value="~ getHp() : int" style="text;align=left;verticalAlign=top;spacingLeft=4;spacingRight=4;overflow=hidden;rotatable=0;points=[[0,0.5],[1,0.5]];portConstraint=eastwest;rounded=0;shadow=0;html=0;" vertex="1" parent="sWKYmD87pAxfQqB18a7g-55">
          <mxGeometry y="92" width="180" height="26" as="geometry" />
        </mxCell>
        <mxCell id="sWKYmD87pAxfQqB18a7g-155" value="~ isFaceUp() : boolean" style="text;align=left;verticalAlign=top;spacingLeft=4;spacingRight=4;overflow=hidden;rotatable=0;points=[[0,0.5],[1,0.5]];portConstraint=eastwest;rounded=0;shadow=0;html=0;" vertex="1" parent="sWKYmD87pAxfQqB18a7g-55">
          <mxGeometry y="118" width="180" height="26" as="geometry" />
        </mxCell>
        <mxCell id="sWKYmD87pAxfQqB18a7g-156" value="~ getImagePath() : String" style="text;align=left;verticalAlign=top;spacingLeft=4;spacingRight=4;overflow=hidden;rotatable=0;points=[[0,0.5],[1,0.5]];portConstraint=eastwest;rounded=0;shadow=0;html=0;" vertex="1" parent="sWKYmD87pAxfQqB18a7g-55">
          <mxGeometry y="144" width="180" height="26" as="geometry" />
        </mxCell>
        <mxCell id="sWKYmD87pAxfQqB18a7g-157" value="~ flipCard() : void" style="text;align=left;verticalAlign=top;spacingLeft=4;spacingRight=4;overflow=hidden;rotatable=0;points=[[0,0.5],[1,0.5]];portConstraint=eastwest;rounded=0;shadow=0;html=0;" vertex="1" parent="sWKYmD87pAxfQqB18a7g-55">
          <mxGeometry y="170" width="180" height="26" as="geometry" />
        </mxCell>
        <mxCell id="sWKYmD87pAxfQqB18a7g-158" value="~ getAttackType() : AttackType" style="text;align=left;verticalAlign=top;spacingLeft=4;spacingRight=4;overflow=hidden;rotatable=0;points=[[0,0.5],[1,0.5]];portConstraint=eastwest;rounded=0;shadow=0;html=0;" vertex="1" parent="sWKYmD87pAxfQqB18a7g-55">
          <mxGeometry y="196" width="180" height="26" as="geometry" />
        </mxCell>
        <mxCell id="sWKYmD87pAxfQqB18a7g-61" value="&lt;&lt;enumerator&gt;&gt; &#xa;AttackType" style="swimlane;fontStyle=2;align=center;verticalAlign=top;childLayout=stackLayout;horizontal=1;startSize=40;horizontalStack=0;resizeParent=1;resizeLast=0;collapsible=1;marginBottom=0;rounded=0;shadow=0;strokeWidth=1;" vertex="1" parent="WIyWlLk6GJQsqaUBKTNV-1">
          <mxGeometry x="-540" y="400" width="160" height="180" as="geometry">
            <mxRectangle x="130" y="380" width="160" height="26" as="alternateBounds" />
          </mxGeometry>
        </mxCell>
        <mxCell id="sWKYmD87pAxfQqB18a7g-62" value="NONE" style="text;align=left;verticalAlign=top;spacingLeft=4;spacingRight=4;overflow=hidden;rotatable=0;points=[[0,0.5],[1,0.5]];portConstraint=eastwest;" vertex="1" parent="sWKYmD87pAxfQqB18a7g-61">
          <mxGeometry y="40" width="160" height="26" as="geometry" />
        </mxCell>
        <mxCell id="sWKYmD87pAxfQqB18a7g-63" value="PHYSICAL" style="text;align=left;verticalAlign=top;spacingLeft=4;spacingRight=4;overflow=hidden;rotatable=0;points=[[0,0.5],[1,0.5]];portConstraint=eastwest;rounded=0;shadow=0;html=0;" vertex="1" parent="sWKYmD87pAxfQqB18a7g-61">
          <mxGeometry y="66" width="160" height="26" as="geometry" />
        </mxCell>
        <mxCell id="sWKYmD87pAxfQqB18a7g-66" value="MAGIC" style="text;align=left;verticalAlign=top;spacingLeft=4;spacingRight=4;overflow=hidden;rotatable=0;points=[[0,0.5],[1,0.5]];portConstraint=eastwest;" vertex="1" parent="sWKYmD87pAxfQqB18a7g-61">
          <mxGeometry y="92" width="160" height="26" as="geometry" />
        </mxCell>
        <mxCell id="sWKYmD87pAxfQqB18a7g-117" value="HEAL" style="text;align=left;verticalAlign=top;spacingLeft=4;spacingRight=4;overflow=hidden;rotatable=0;points=[[0,0.5],[1,0.5]];portConstraint=eastwest;" vertex="1" parent="sWKYmD87pAxfQqB18a7g-61">
          <mxGeometry y="118" width="160" height="26" as="geometry" />
        </mxCell>
        <mxCell id="sWKYmD87pAxfQqB18a7g-118" value="SHIELD" style="text;align=left;verticalAlign=top;spacingLeft=4;spacingRight=4;overflow=hidden;rotatable=0;points=[[0,0.5],[1,0.5]];portConstraint=eastwest;" vertex="1" parent="sWKYmD87pAxfQqB18a7g-61">
          <mxGeometry y="144" width="160" height="26" as="geometry" />
        </mxCell>
        <mxCell id="sWKYmD87pAxfQqB18a7g-67" value="Main" style="swimlane;fontStyle=0;align=center;verticalAlign=top;childLayout=stackLayout;horizontal=1;startSize=26;horizontalStack=0;resizeParent=1;resizeLast=0;collapsible=1;marginBottom=0;rounded=0;shadow=0;strokeWidth=1;" vertex="1" parent="WIyWlLk6GJQsqaUBKTNV-1">
          <mxGeometry x="-555" y="184" width="190" height="70" as="geometry">
            <mxRectangle x="130" y="380" width="160" height="26" as="alternateBounds" />
          </mxGeometry>
        </mxCell>
        <mxCell id="sWKYmD87pAxfQqB18a7g-70" value="" style="line;html=1;strokeWidth=1;align=left;verticalAlign=middle;spacingTop=-1;spacingLeft=3;spacingRight=3;rotatable=0;labelPosition=right;points=[];portConstraint=eastwest;" vertex="1" parent="sWKYmD87pAxfQqB18a7g-67">
          <mxGeometry y="26" width="190" height="8" as="geometry" />
        </mxCell>
        <mxCell id="sWKYmD87pAxfQqB18a7g-71" value="+ start(Stage primaryStage) : void" style="text;align=left;verticalAlign=top;spacingLeft=4;spacingRight=4;overflow=hidden;rotatable=0;points=[[0,0.5],[1,0.5]];portConstraint=eastwest;fontStyle=0" vertex="1" parent="sWKYmD87pAxfQqB18a7g-67">
          <mxGeometry y="34" width="190" height="26" as="geometry" />
        </mxCell>
        <mxCell id="sWKYmD87pAxfQqB18a7g-73" value="(JavaFX Application)" style="swimlane;fontStyle=0;align=center;verticalAlign=top;childLayout=stackLayout;horizontal=1;startSize=26;horizontalStack=0;resizeParent=1;resizeLast=0;collapsible=1;marginBottom=0;rounded=0;shadow=0;strokeWidth=1;" vertex="1" parent="WIyWlLk6GJQsqaUBKTNV-1">
          <mxGeometry x="-540" y="50" width="160" height="70" as="geometry">
            <mxRectangle x="130" y="380" width="160" height="26" as="alternateBounds" />
          </mxGeometry>
        </mxCell>
        <mxCell id="sWKYmD87pAxfQqB18a7g-74" value="" style="line;html=1;strokeWidth=1;align=left;verticalAlign=middle;spacingTop=-1;spacingLeft=3;spacingRight=3;rotatable=0;labelPosition=right;points=[];portConstraint=eastwest;" vertex="1" parent="sWKYmD87pAxfQqB18a7g-73">
          <mxGeometry y="26" width="160" height="8" as="geometry" />
        </mxCell>
        <mxCell id="sWKYmD87pAxfQqB18a7g-76" value="Extends" style="endArrow=block;endSize=16;endFill=0;html=1;rounded=0;exitX=0.5;exitY=0;exitDx=0;exitDy=0;entryX=0.5;entryY=1;entryDx=0;entryDy=0;" edge="1" parent="WIyWlLk6GJQsqaUBKTNV-1" source="sWKYmD87pAxfQqB18a7g-67" target="sWKYmD87pAxfQqB18a7g-73">
          <mxGeometry width="160" relative="1" as="geometry">
            <mxPoint x="-420" y="280" as="sourcePoint" />
            <mxPoint x="-260" y="280" as="targetPoint" />
          </mxGeometry>
        </mxCell>
        <mxCell id="sWKYmD87pAxfQqB18a7g-78" value="ok" style="text;strokeColor=none;fillColor=none;html=1;fontSize=24;fontStyle=1;verticalAlign=middle;align=center;" vertex="1" parent="WIyWlLk6GJQsqaUBKTNV-1">
          <mxGeometry x="-390" y="90" width="100" height="40" as="geometry" />
        </mxCell>
        <mxCell id="sWKYmD87pAxfQqB18a7g-79" value="ok" style="text;strokeColor=none;fillColor=none;html=1;fontSize=24;fontStyle=1;verticalAlign=middle;align=center;" vertex="1" parent="WIyWlLk6GJQsqaUBKTNV-1">
          <mxGeometry x="-370" y="214" width="100" height="40" as="geometry" />
        </mxCell>
        <mxCell id="sWKYmD87pAxfQqB18a7g-80" value="ok" style="text;strokeColor=none;fillColor=none;html=1;fontSize=24;fontStyle=1;verticalAlign=middle;align=center;" vertex="1" parent="WIyWlLk6GJQsqaUBKTNV-1">
          <mxGeometry x="-160" y="110" width="100" height="40" as="geometry" />
        </mxCell>
        <mxCell id="sWKYmD87pAxfQqB18a7g-81" value="&lt;&lt;enumeration&gt;&gt;&#xa;WhoGetDamage" style="swimlane;fontStyle=2;align=center;verticalAlign=top;childLayout=stackLayout;horizontal=1;startSize=40;horizontalStack=0;resizeParent=1;resizeLast=0;collapsible=1;marginBottom=0;rounded=0;shadow=0;strokeWidth=1;" vertex="1" parent="WIyWlLk6GJQsqaUBKTNV-1">
          <mxGeometry x="400" y="150" width="160" height="120" as="geometry">
            <mxRectangle x="130" y="380" width="160" height="26" as="alternateBounds" />
          </mxGeometry>
        </mxCell>
        <mxCell id="sWKYmD87pAxfQqB18a7g-82" value="player" style="text;align=left;verticalAlign=top;spacingLeft=4;spacingRight=4;overflow=hidden;rotatable=0;points=[[0,0.5],[1,0.5]];portConstraint=eastwest;" vertex="1" parent="sWKYmD87pAxfQqB18a7g-81">
          <mxGeometry y="40" width="160" height="26" as="geometry" />
        </mxCell>
        <mxCell id="sWKYmD87pAxfQqB18a7g-83" value="enemy" style="text;align=left;verticalAlign=top;spacingLeft=4;spacingRight=4;overflow=hidden;rotatable=0;points=[[0,0.5],[1,0.5]];portConstraint=eastwest;rounded=0;shadow=0;html=0;" vertex="1" parent="sWKYmD87pAxfQqB18a7g-81">
          <mxGeometry y="66" width="160" height="26" as="geometry" />
        </mxCell>
        <mxCell id="sWKYmD87pAxfQqB18a7g-88" value="draw" style="text;align=left;verticalAlign=top;spacingLeft=4;spacingRight=4;overflow=hidden;rotatable=0;points=[[0,0.5],[1,0.5]];portConstraint=eastwest;rounded=0;shadow=0;html=0;" vertex="1" parent="sWKYmD87pAxfQqB18a7g-81">
          <mxGeometry y="92" width="160" height="26" as="geometry" />
        </mxCell>
        <mxCell id="sWKYmD87pAxfQqB18a7g-116" value="ok" style="text;strokeColor=none;fillColor=none;html=1;fontSize=24;fontStyle=1;verticalAlign=middle;align=center;" vertex="1" parent="WIyWlLk6GJQsqaUBKTNV-1">
          <mxGeometry x="212" y="334" width="100" height="40" as="geometry" />
        </mxCell>
        <mxCell id="sWKYmD87pAxfQqB18a7g-149" value="ok" style="text;strokeColor=none;fillColor=none;html=1;fontSize=24;fontStyle=1;verticalAlign=middle;align=center;" vertex="1" parent="WIyWlLk6GJQsqaUBKTNV-1">
          <mxGeometry x="-510" y="830" width="100" height="40" as="geometry" />
        </mxCell>
        <mxCell id="sWKYmD87pAxfQqB18a7g-150" value="ok" style="text;strokeColor=none;fillColor=none;html=1;fontSize=24;fontStyle=1;verticalAlign=middle;align=center;" vertex="1" parent="WIyWlLk6GJQsqaUBKTNV-1">
          <mxGeometry x="-510" y="360" width="100" height="40" as="geometry" />
        </mxCell>
        <mxCell id="sWKYmD87pAxfQqB18a7g-151" value="ok" style="text;strokeColor=none;fillColor=none;html=1;fontSize=24;fontStyle=1;verticalAlign=middle;align=center;" vertex="1" parent="WIyWlLk6GJQsqaUBKTNV-1">
          <mxGeometry x="-400" y="570" width="100" height="40" as="geometry" />
        </mxCell>
        <mxCell id="sWKYmD87pAxfQqB18a7g-160" value="GameCharacter" style="swimlane;fontStyle=0;align=center;verticalAlign=top;childLayout=stackLayout;horizontal=1;startSize=26;horizontalStack=0;resizeParent=1;resizeLast=0;collapsible=1;marginBottom=0;rounded=0;shadow=0;strokeWidth=1;" vertex="1" parent="WIyWlLk6GJQsqaUBKTNV-1">
          <mxGeometry x="-166" y="1220" width="440" height="321" as="geometry">
            <mxRectangle x="130" y="380" width="160" height="26" as="alternateBounds" />
          </mxGeometry>
        </mxCell>
        <mxCell id="sWKYmD87pAxfQqB18a7g-161" value="- name : String" style="text;align=left;verticalAlign=top;spacingLeft=4;spacingRight=4;overflow=hidden;rotatable=0;points=[[0,0.5],[1,0.5]];portConstraint=eastwest;" vertex="1" parent="sWKYmD87pAxfQqB18a7g-160">
          <mxGeometry y="26" width="440" height="26" as="geometry" />
        </mxCell>
        <mxCell id="sWKYmD87pAxfQqB18a7g-166" value="- hp : int" style="text;align=left;verticalAlign=top;spacingLeft=4;spacingRight=4;overflow=hidden;rotatable=0;points=[[0,0.5],[1,0.5]];portConstraint=eastwest;" vertex="1" parent="sWKYmD87pAxfQqB18a7g-160">
          <mxGeometry y="52" width="440" height="26" as="geometry" />
        </mxCell>
        <mxCell id="sWKYmD87pAxfQqB18a7g-167" value="- MAXHP : int" style="text;align=left;verticalAlign=top;spacingLeft=4;spacingRight=4;overflow=hidden;rotatable=0;points=[[0,0.5],[1,0.5]];portConstraint=eastwest;" vertex="1" parent="sWKYmD87pAxfQqB18a7g-160">
          <mxGeometry y="78" width="440" height="26" as="geometry" />
        </mxCell>
        <mxCell id="sWKYmD87pAxfQqB18a7g-168" value="- imagePath : String" style="text;align=left;verticalAlign=top;spacingLeft=4;spacingRight=4;overflow=hidden;rotatable=0;points=[[0,0.5],[1,0.5]];portConstraint=eastwest;" vertex="1" parent="sWKYmD87pAxfQqB18a7g-160">
          <mxGeometry y="104" width="440" height="26" as="geometry" />
        </mxCell>
        <mxCell id="sWKYmD87pAxfQqB18a7g-169" value="- probability : double" style="text;align=left;verticalAlign=top;spacingLeft=4;spacingRight=4;overflow=hidden;rotatable=0;points=[[0,0.5],[1,0.5]];portConstraint=eastwest;" vertex="1" parent="sWKYmD87pAxfQqB18a7g-160">
          <mxGeometry y="130" width="440" height="26" as="geometry" />
        </mxCell>
        <mxCell id="sWKYmD87pAxfQqB18a7g-163" value="" style="line;html=1;strokeWidth=1;align=left;verticalAlign=middle;spacingTop=-1;spacingLeft=3;spacingRight=3;rotatable=0;labelPosition=right;points=[];portConstraint=eastwest;" vertex="1" parent="sWKYmD87pAxfQqB18a7g-160">
          <mxGeometry y="156" width="440" height="8" as="geometry" />
        </mxCell>
        <mxCell id="sWKYmD87pAxfQqB18a7g-170" value="+ GameCharacter(String name, String imagePath, int maxHp, double probability)" style="text;align=left;verticalAlign=top;spacingLeft=4;spacingRight=4;overflow=hidden;rotatable=0;points=[[0,0.5],[1,0.5]];portConstraint=eastwest;" vertex="1" parent="sWKYmD87pAxfQqB18a7g-160">
          <mxGeometry y="164" width="440" height="26" as="geometry" />
        </mxCell>
        <mxCell id="sWKYmD87pAxfQqB18a7g-171" value="+ takeDamage(int damage) : void" style="text;align=left;verticalAlign=top;spacingLeft=4;spacingRight=4;overflow=hidden;rotatable=0;points=[[0,0.5],[1,0.5]];portConstraint=eastwest;" vertex="1" parent="sWKYmD87pAxfQqB18a7g-160">
          <mxGeometry y="190" width="440" height="26" as="geometry" />
        </mxCell>
        <mxCell id="sWKYmD87pAxfQqB18a7g-172" value="+ isAlive() : boolean" style="text;align=left;verticalAlign=top;spacingLeft=4;spacingRight=4;overflow=hidden;rotatable=0;points=[[0,0.5],[1,0.5]];portConstraint=eastwest;" vertex="1" parent="sWKYmD87pAxfQqB18a7g-160">
          <mxGeometry y="216" width="440" height="26" as="geometry" />
        </mxCell>
        <mxCell id="sWKYmD87pAxfQqB18a7g-173" value="+ heal(int value) : void" style="text;align=left;verticalAlign=top;spacingLeft=4;spacingRight=4;overflow=hidden;rotatable=0;points=[[0,0.5],[1,0.5]];portConstraint=eastwest;" vertex="1" parent="sWKYmD87pAxfQqB18a7g-160">
          <mxGeometry y="242" width="440" height="26" as="geometry" />
        </mxCell>
        <mxCell id="sWKYmD87pAxfQqB18a7g-174" value="+ debug() : void" style="text;align=left;verticalAlign=top;spacingLeft=4;spacingRight=4;overflow=hidden;rotatable=0;points=[[0,0.5],[1,0.5]];portConstraint=eastwest;" vertex="1" parent="sWKYmD87pAxfQqB18a7g-160">
          <mxGeometry y="268" width="440" height="26" as="geometry" />
        </mxCell>
        <mxCell id="sWKYmD87pAxfQqB18a7g-176" value="ok" style="text;strokeColor=none;fillColor=none;html=1;fontSize=24;fontStyle=1;verticalAlign=middle;align=center;" vertex="1" parent="WIyWlLk6GJQsqaUBKTNV-1">
          <mxGeometry x="-166" y="1180" width="100" height="40" as="geometry" />
        </mxCell>
        <mxCell id="sWKYmD87pAxfQqB18a7g-201" value="ok" style="text;strokeColor=none;fillColor=none;html=1;fontSize=24;fontStyle=1;verticalAlign=middle;align=center;" vertex="1" parent="WIyWlLk6GJQsqaUBKTNV-1">
          <mxGeometry x="510" y="560" width="100" height="40" as="geometry" />
        </mxCell>
        <mxCell id="sWKYmD87pAxfQqB18a7g-262" value="ok" style="text;strokeColor=none;fillColor=none;html=1;fontSize=24;fontStyle=1;verticalAlign=middle;align=center;" vertex="1" parent="WIyWlLk6GJQsqaUBKTNV-1">
          <mxGeometry x="790" y="230" width="100" height="40" as="geometry" />
        </mxCell>
        <mxCell id="sWKYmD87pAxfQqB18a7g-265" value="ok" style="text;strokeColor=none;fillColor=none;html=1;fontSize=24;fontStyle=1;verticalAlign=middle;align=center;" vertex="1" parent="WIyWlLk6GJQsqaUBKTNV-1">
          <mxGeometry x="430" y="1159" width="100" height="40" as="geometry" />
        </mxCell>
      </root>
    </mxGraphModel>
  </diagram>
</mxfile>
